<svg width="30" height="30" viewBox="0 0 30 30" fill="none" xmlns="http://www.w3.org/2000/svg">
<rect width="30" height="30" fill="#EDEDED"/>
<g clip-path="url(#clip0_4689_2807)">
<rect width="1440" height="5578" transform="translate(-780 -2346)" fill="white"/>
<rect width="1440" height="994" transform="translate(-780 -438)" fill="white"/>
<g filter="url(#filter0_d_4689_2807)">
<rect x="-45" y="-45" width="510" height="120" rx="25" fill="#252B42"/>
<rect x="-21" y="-21" width="72" height="72" rx="36" fill="#D4EAF6"/>
<mask id="path-3-inside-1_4689_2807" fill="white">
<path d="M26.6667 0H3.33333C2.44928 0 1.60143 0.351189 0.976311 0.976311C0.351189 1.60143 0 2.44928 0 3.33333V26.6667C0 27.5507 0.351189 28.3986 0.976311 29.0237C1.60143 29.6488 2.44928 30 3.33333 30H26.6667C27.5507 30 28.3986 29.6488 29.0237 29.0237C29.6488 28.3986 30 27.5507 30 26.6667V3.33333C30 2.44928 29.6488 1.60143 29.0237 0.976311C28.3986 0.351189 27.5507 0 26.6667 0ZM26.6667 26.6667H3.33333V3.33333H26.6667V26.6667ZM10 23.3333H6.66667V15H10V23.3333ZM16.6667 23.3333H13.3333V6.66667H16.6667V23.3333ZM23.3333 23.3333H20V11.6667H23.3333V23.3333Z"/>
</mask>
<path d="M26.6667 0H3.33333C2.44928 0 1.60143 0.351189 0.976311 0.976311C0.351189 1.60143 0 2.44928 0 3.33333V26.6667C0 27.5507 0.351189 28.3986 0.976311 29.0237C1.60143 29.6488 2.44928 30 3.33333 30H26.6667C27.5507 30 28.3986 29.6488 29.0237 29.0237C29.6488 28.3986 30 27.5507 30 26.6667V3.33333C30 2.44928 29.6488 1.60143 29.0237 0.976311C28.3986 0.351189 27.5507 0 26.6667 0ZM26.6667 26.6667H3.33333V3.33333H26.6667V26.6667ZM10 23.3333H6.66667V15H10V23.3333ZM16.6667 23.3333H13.3333V6.66667H16.6667V23.3333ZM23.3333 23.3333H20V11.6667H23.3333V23.3333Z" fill="#31A0FE" stroke="#31A0FE" stroke-width="2" mask="url(#path-3-inside-1_4689_2807)"/>
</g>
</g>
<defs>
<filter id="filter0_d_4689_2807" x="-64" y="-51" width="548" height="158" filterUnits="userSpaceOnUse" color-interpolation-filters="sRGB">
<feFlood flood-opacity="0" result="BackgroundImageFix"/>
<feColorMatrix in="SourceAlpha" type="matrix" values="0 0 0 0 0 0 0 0 0 0 0 0 0 0 0 0 0 0 127 0" result="hardAlpha"/>
<feOffset dy="13"/>
<feGaussianBlur stdDeviation="9.5"/>
<feColorMatrix type="matrix" values="0 0 0 0 0 0 0 0 0 0 0 0 0 0 0 0 0 0 0.07 0"/>
<feBlend mode="normal" in2="BackgroundImageFix" result="effect1_dropShadow_4689_2807"/>
<feBlend mode="normal" in="SourceGraphic" in2="effect1_dropShadow_4689_2807" result="shape"/>
</filter>
<clipPath id="clip0_4689_2807">
<rect width="1440" height="5578" fill="white" transform="translate(-780 -2346)"/>
</clipPath>
</defs>
</svg>
