<svg width="96" height="14" viewBox="0 0 96 14" fill="none" xmlns="http://www.w3.org/2000/svg">
<g clip-path="url(#clip0_5706_636)">
<g clip-path="url(#clip1_5706_636)">
<path d="M13.3201 4.83195L9.44806 4.49595L7.93606 0.935951C7.66406 0.287951 6.73606 0.287951 6.46406 0.935951L4.95206 4.50395L1.08806 4.83195C0.384058 4.88795 0.096058 5.76795 0.632058 6.23195L3.56806 8.77595L2.68806 12.552C2.52806 13.24 3.27206 13.784 3.88006 13.416L7.20006 11.416L10.5201 13.424C11.1281 13.792 11.8721 13.248 11.7121 12.56L10.8321 8.77595L13.7681 6.23195C14.3041 5.76795 14.0241 4.88795 13.3201 4.83195ZM7.20006 9.91995L4.19206 11.736L4.99206 8.31195L2.33606 6.00795L5.84006 5.70395L7.20006 2.47995L8.56806 5.71195L12.0721 6.01595L9.41606 8.31995L10.2161 11.744L7.20006 9.91995Z" fill="#737373"/>
</g>
<g clip-path="url(#clip2_5706_636)">
<path d="M33.7204 4.83195L29.8484 4.49595L28.3364 0.935951C28.0644 0.287951 27.1364 0.287951 26.8644 0.935951L25.3524 4.50395L21.4884 4.83195C20.7844 4.88795 20.4964 5.76795 21.0324 6.23195L23.9684 8.77595L23.0884 12.552C22.9284 13.24 23.6724 13.784 24.2804 13.416L27.6004 11.416L30.9204 13.424C31.5284 13.792 32.2724 13.248 32.1124 12.56L31.2324 8.77595L34.1684 6.23195C34.7044 5.76795 34.4244 4.88795 33.7204 4.83195ZM27.6004 9.91995L24.5924 11.736L25.3924 8.31195L22.7364 6.00795L26.2404 5.70395L27.6004 2.47995L28.9684 5.71195L32.4724 6.01595L29.8164 8.31995L30.6164 11.744L27.6004 9.91995Z" fill="#737373"/>
</g>
<g clip-path="url(#clip3_5706_636)">
<path d="M54.1199 4.83195L50.2479 4.49595L48.7359 0.935951C48.4639 0.287951 47.5359 0.287951 47.2639 0.935951L45.7519 4.50395L41.8879 4.83195C41.1839 4.88795 40.8959 5.76795 41.4319 6.23195L44.3679 8.77595L43.4879 12.552C43.3279 13.24 44.0719 13.784 44.6799 13.416L47.9999 11.416L51.3199 13.424C51.9279 13.792 52.6719 13.248 52.5119 12.56L51.6319 8.77595L54.5679 6.23195C55.1039 5.76795 54.8239 4.88795 54.1199 4.83195ZM47.9999 9.91995L44.9919 11.736L45.7919 8.31195L43.1359 6.00795L46.6399 5.70395L47.9999 2.47995L49.3679 5.71195L52.8719 6.01595L50.2159 8.31995L51.0159 11.744L47.9999 9.91995Z" fill="#737373"/>
</g>
<g clip-path="url(#clip4_5706_636)">
<path d="M74.5203 4.83195L70.6483 4.49595L69.1363 0.935951C68.8643 0.287951 67.9363 0.287951 67.6643 0.935951L66.1523 4.50395L62.2883 4.83195C61.5843 4.88795 61.2963 5.76795 61.8323 6.23195L64.7683 8.77595L63.8883 12.552C63.7283 13.24 64.4723 13.784 65.0803 13.416L68.4003 11.416L71.7203 13.424C72.3283 13.792 73.0723 13.248 72.9123 12.56L72.0323 8.77595L74.9683 6.23195C75.5043 5.76795 75.2243 4.88795 74.5203 4.83195ZM68.4003 9.91995L65.3923 11.736L66.1923 8.31195L63.5363 6.00795L67.0403 5.70395L68.4003 2.47995L69.7683 5.71195L73.2723 6.01595L70.6163 8.31995L71.4163 11.744L68.4003 9.91995Z" fill="#737373"/>
</g>
<g clip-path="url(#clip5_5706_636)">
<path d="M94.9197 4.83195L91.0477 4.49595L89.5357 0.935951C89.2637 0.287951 88.3357 0.287951 88.0637 0.935951L86.5517 4.50395L82.6877 4.83195C81.9837 4.88795 81.6957 5.76795 82.2317 6.23195L85.1677 8.77595L84.2877 12.552C84.1277 13.24 84.8717 13.784 85.4797 13.416L88.7997 11.416L92.1197 13.424C92.7277 13.792 93.4717 13.248 93.3117 12.56L92.4317 8.77595L95.3677 6.23195C95.9037 5.76795 95.6237 4.88795 94.9197 4.83195ZM88.7997 9.91995L85.7917 11.736L86.5917 8.31195L83.9357 6.00795L87.4397 5.70395L88.7997 2.47995L90.1677 5.71195L93.6717 6.01595L91.0157 8.31995L91.8157 11.744L88.7997 9.91995Z" fill="#737373"/>
</g>
</g>
<defs>
<clipPath id="clip0_5706_636">
<rect width="96" height="13.8" fill="white"/>
</clipPath>
<clipPath id="clip1_5706_636">
<rect width="14.4" height="13.8" fill="white"/>
</clipPath>
<clipPath id="clip2_5706_636">
<rect width="14.4" height="13.8" fill="white" transform="translate(20.4004)"/>
</clipPath>
<clipPath id="clip3_5706_636">
<rect width="14.4" height="13.8" fill="white" transform="translate(40.7998)"/>
</clipPath>
<clipPath id="clip4_5706_636">
<rect width="14.4" height="13.8" fill="white" transform="translate(61.2002)"/>
</clipPath>
<clipPath id="clip5_5706_636">
<rect width="14.4" height="13.8" fill="white" transform="translate(81.5996)"/>
</clipPath>
</defs>
</svg>
