<svg width="15" height="14" viewBox="0 0 15 14" fill="none" xmlns="http://www.w3.org/2000/svg">
<path d="M13.4197 4.83195L9.54767 4.49595L8.03567 0.935951C7.76367 0.287951 6.83567 0.287951 6.56367 0.935951L5.05167 4.50395L1.18767 4.83195C0.483668 4.88795 0.195667 5.76795 0.731667 6.23195L3.66767 8.77595L2.78767 12.552C2.62767 13.24 3.37167 13.784 3.97967 13.416L7.29967 11.416L10.6197 13.424C11.2277 13.792 11.9717 13.248 11.8117 12.56L10.9317 8.77595L13.8677 6.23195C14.4037 5.76795 14.1237 4.88795 13.4197 4.83195ZM7.29967 9.91995L4.29167 11.736L5.09167 8.31195L2.43567 6.00795L5.93967 5.70395L7.29967 2.47995L8.66767 5.71195L12.1717 6.01595L9.51567 8.31995L10.3157 11.744L7.29967 9.91995Z" fill="#737373"/>
</svg>
